<?xml version="1.0" encoding="utf-8"?>
<!-- Generator: Adobe Illustrator 27.5.0, SVG Export Plug-In . SVG Version: 6.00 Build 0)  -->
<svg version="1.1" id="OBJECTS_1_" xmlns="http://www.w3.org/2000/svg" xmlns:xlink="http://www.w3.org/1999/xlink" x="0px" y="0px"
	 viewBox="10 50 450 500" style="enable-background:new 0 0 750 500;" xml:space="preserve" width="500" height="500">
<g>
	<ellipse style="fill:#D2E4FF;" cx="130.86" cy="441.267" rx="65.644" ry="17.563"/>
	<g>
		<g>
			<path style="fill:#F6C95B;" d="M82.106,108.787c-0.772,1.204-1.355,2.475-1.792,3.766c-0.214,0.273-0.429,0.557-0.641,0.852
				c-0.692,1.039-1.338,2.221-1.803,3.488c-0.446,1.271-0.7,2.611-0.773,3.883c-0.013,1.272,0.091,2.472,0.367,3.459
				c0.095,0.504,0.276,0.937,0.406,1.332c0.129,0.397,0.276,0.725,0.408,0.988c0.253,0.535,0.398,0.841,0.398,0.841
				s0.17,0.29,0.462,0.802c0.138,0.26,0.344,0.557,0.589,0.896c0.23,0.346,0.524,0.712,0.881,1.087
				c1.344,1.574,3.812,3.003,6.446,3.533c1.322,0.33,2.694,0.288,3.941,0.171c1.244-0.173,2.37-0.467,3.312-0.76
				c0.328-0.102,0.631-0.198,0.919-0.286c4.842-0.391,9.568-3.079,12.504-7.67c4.818-7.539,2.987-17.317-4.087-21.841
				C96.568,98.802,86.925,101.248,82.106,108.787z M90.935,133.29c-1.191,0.052-2.483,0.043-3.706-0.312
				c-2.479-0.601-4.717-1.997-5.885-3.453c-0.312-0.351-0.575-0.69-0.774-1.017c-0.219-0.315-0.404-0.593-0.526-0.847
				c-0.27-0.489-0.42-0.769-0.42-0.769s-0.142-0.283-0.393-0.777c-0.131-0.248-0.28-0.549-0.402-0.913
				c-0.13-0.358-0.311-0.755-0.41-1.218c-0.281-0.902-0.406-2.006-0.433-3.187c0.031-1.184,0.227-2.445,0.602-3.666
				c0.314-0.966,0.742-1.892,1.217-2.754c-1.354,6.257,0.975,12.788,6.39,16.249c2.237,1.43,4.732,2.16,7.251,2.255
				C92.669,133.05,91.84,133.206,90.935,133.29z"/>
			<path style="opacity:0.6;fill:#F6C95B;" d="M98.117,115.76c-3.365,6.357-9.255,9.942-15.843,11.143
				c1.037,1.446,2.343,2.718,3.919,3.725c2.237,1.43,4.732,2.16,7.251,2.255c-0.775,0.168-1.604,0.324-2.51,0.407
				c-1.191,0.052-2.483,0.043-3.706-0.312c-2.479-0.601-4.717-1.997-5.885-3.453c-0.312-0.351-0.575-0.69-0.774-1.017
				c-0.219-0.315-0.404-0.593-0.526-0.847c-0.096-0.172-0.17-0.307-0.234-0.426c-0.388,0.035-0.773,0.065-1.163,0.085
				c0.021,0.046,0.033,0.074,0.033,0.074s0.17,0.29,0.462,0.802c0.138,0.26,0.344,0.557,0.589,0.896
				c0.23,0.346,0.524,0.712,0.881,1.087c1.344,1.574,3.812,3.003,6.446,3.533c1.322,0.33,2.694,0.288,3.941,0.171
				c1.244-0.173,2.37-0.467,3.312-0.76c0.328-0.102,0.631-0.198,0.919-0.286c4.842-0.391,9.568-3.079,12.504-7.67
				c4.818-7.539,2.987-17.317-4.087-21.841c-0.722-0.462-1.476-0.833-2.245-1.152C101.332,106.884,100.353,111.539,98.117,115.76z"
				/>
			<path style="fill:#C87568;" d="M102.818,105.717c0.012,1.368-0.393,3.176-1.313,4.719c-0.88,1.572-2.245,2.798-3.331,3.581
				c-1.093,0.787-1.917,1.158-1.917,1.158s-0.771,0.467-2.039,0.935c-1.291,0.459-3.058,1.074-4.827,1.493
				c-1.769,0.414-3.63,0.57-4.891,0.108c-0.106-0.033-0.199-0.074-0.294-0.113c-0.321-0.409-0.618-0.828-0.883-1.248
				c-0.496-0.869-0.907-1.717-1.142-2.488c-0.507-1.534-0.588-2.637-0.686-2.626c-0.038,0.003-0.042,0.275-0.023,0.761
				c0.009,0.483,0.109,1.173,0.31,1.981c0.171,0.784,0.523,1.652,0.967,2.548c-0.047-0.047-0.084-0.073-0.103-0.057
				c-0.03,0.02,0.081,0.224,0.313,0.578c0.074,0.107,0.187,0.216,0.308,0.33c0.425,0.671,0.899,1.331,1.457,1.939
				c0.773,0.816,1.642,1.538,2.505,2.142c0.884,0.574,1.736,1.069,2.51,1.404c0.767,0.352,1.426,0.599,1.895,0.745
				c0.467,0.15,0.734,0.237,0.734,0.237s0.275,0.063,0.751,0.174c0.482,0.109,1.17,0.243,2.004,0.333
				c1.668,0.21,3.927,0.219,6.121-0.225c2.191-0.428,4.276-1.322,5.645-2.278c0.697-0.457,1.219-0.921,1.562-1.257
				c0.34-0.347,0.52-0.554,0.494-0.58c-0.064-0.07-0.867,0.683-2.275,1.482c-1.392,0.82-3.438,1.569-5.558,1.891
				c-2.121,0.33-4.278,0.244-5.857-0.008c-0.791-0.114-1.443-0.261-1.894-0.376c-0.45-0.119-0.706-0.188-0.706-0.188
				s-0.258-0.073-0.703-0.203c-0.449-0.126-1.079-0.342-1.814-0.651c-0.744-0.29-1.563-0.733-2.421-1.243
				c-0.84-0.537-1.683-1.188-2.452-1.925c-0.16-0.164-0.303-0.344-0.454-0.516c1.318,0.438,3.085,0.366,4.73,0.068
				c1.87-0.342,3.647-0.882,4.998-1.304c1.374-0.446,2.218-0.921,2.218-0.921s0.87-0.423,2.009-1.316
				c1.132-0.88,2.544-2.262,3.401-4.004c0.907-1.712,1.211-3.677,1.067-5.096c-0.086-0.708-0.175-1.291-0.314-1.684
				c-0.116-0.393-0.198-0.613-0.234-0.602C102.583,103.441,102.817,104.35,102.818,105.717z"/>
		</g>
		<g>
			<path style="fill:#FA7296;" d="M142.631,146.963c0,0,12.221-3.381,15.037,4.27c2.817,7.648,4.343,26.653,5.412,31.706
				c1.069,5.052,8.722,17.826,7.815,21.1c-0.904,3.27-15.369,9.4-23.092-4.715C140.08,185.21,142.631,146.963,142.631,146.963z"/>
			<path style="opacity:0.5;fill:#C04A82;" d="M148.73,200.859c0.158,0.246,0.321,0.488,0.487,0.72
				c0.095,0.134,0.191,0.263,0.29,0.393c0.152,0.203,0.307,0.402,0.461,0.594c0.106,0.128,0.209,0.255,0.315,0.378
				c0.155,0.181,0.313,0.354,0.472,0.523c0.106,0.114,0.211,0.232,0.32,0.342c0.168,0.173,0.341,0.334,0.514,0.494
				c0.099,0.092,0.194,0.191,0.293,0.279c0.255,0.226,0.512,0.437,0.771,0.638c0.145,0.113,0.292,0.217,0.439,0.322
				c0.126,0.091,0.252,0.183,0.376,0.269c0.163,0.109,0.328,0.212,0.492,0.313c0.109,0.067,0.219,0.135,0.328,0.198
				c0.177,0.102,0.354,0.201,0.531,0.294c0.092,0.047,0.182,0.092,0.271,0.137c0.197,0.098,0.395,0.192,0.592,0.28
				c0.044,0.019,0.088,0.035,0.131,0.055c1.273,0.542,2.559,0.866,3.815,1.015c-0.744-2.436-1.539-4.861-2.388-7.274
				c-2.337-6.64,2.586-11.421,7.987-12.139c-0.23-0.514-0.446-1.014-0.652-1.5c-0.035-0.081-0.07-0.163-0.104-0.243
				c-0.171-0.409-0.329-0.801-0.477-1.182c-0.048-0.119-0.097-0.242-0.14-0.358c-0.134-0.351-0.249-0.681-0.354-1.001
				c-0.037-0.11-0.081-0.229-0.114-0.334c-0.128-0.407-0.234-0.79-0.308-1.132c-0.038-0.181-0.078-0.385-0.117-0.6
				c-0.015-0.088-0.032-0.183-0.048-0.275c-0.023-0.139-0.05-0.281-0.073-0.433c-0.019-0.112-0.037-0.227-0.057-0.347
				c-0.022-0.143-0.046-0.294-0.068-0.447c-0.064-0.415-0.127-0.85-0.194-1.325c-2.238-0.419-4.361-1.704-5.908-4.063
				c-5.303-8.087-8.031-19.678-3.886-28.657c-4.494-1.376-10.098,0.171-10.098,0.171s-2.551,38.246,5.173,52.36
				c0.225,0.41,0.456,0.8,0.69,1.177C148.572,200.624,148.651,200.739,148.73,200.859z"/>
		</g>
		<g>
			<g>
				<g>
					<g>

							<rect x="123.831" y="200.611" transform="matrix(0.9777 -0.2098 0.2098 0.9777 -43.8437 38.4378)" style="fill:#F6C95B;" width="70.868" height="50.554"/>
						<g style="opacity:0.3;">
							<polygon style="fill:#CC5252;" points="187.895,195.461 198.18,243.389 199.213,243.169 188.607,193.74 119.315,208.607
								119.638,210.106 							"/>
						</g>
						<g style="opacity:0.6;">
							<polygon style="fill:#F6C95B;" points="188.607,193.74 119.315,208.607 129.924,258.036 							"/>
						</g>
					</g>
					<g>
						<g style="opacity:0.3;">

								<rect x="188.43" y="210.604" transform="matrix(0.9778 -0.2097 0.2097 0.9778 -41.7062 44.9714)" style="fill:#7986B9;" width="5.569" height="17.103"/>
						</g>
						<g style="opacity:0.3;">

								<rect x="189.39" y="210.463" transform="matrix(0.9778 -0.2096 0.2096 0.9778 -41.606 45.4983)" style="fill:#7986B9;" width="8.865" height="17.102"/>
						</g>

							<rect x="189.599" y="211.349" transform="matrix(0.9777 -0.21 0.21 0.9777 -41.858 45.6579)" style="fill:#D2E4FF;" width="8.867" height="17.104"/>
						<g style="opacity:0.2;">
							<polyline style="fill:#5789E3;" points="191.493,229.193 187.903,212.47 196.572,210.608 							"/>
						</g>
					</g>
				</g>
			</g>
		</g>
		<g>
			<path style="fill:#F8B09D;" d="M173.07,250.917c0,0,1.233-11.844-6.533-15.578c-4.298-2.072-11.092,18.902-7.428,21.196
				C162.771,258.822,172.466,253.274,173.07,250.917z"/>
			<path style="opacity:0.4;fill:#FA7296;" d="M159.109,256.534c-0.392-0.246-0.656-0.712-0.824-1.332
				c0.058-1.535,0.298-3.337,0.671-5.218c1.043,1.024,2.37,1.76,3.885,2.004c2.689,0.439,5.533,0.131,7.818-1.488
				c1.014-0.716,1.811-1.565,2.457-2.514c0.059,1.294,0.004,2.284-0.027,2.709c0.001,0.009,0,0.016,0,0.026
				c-0.005,0.055-0.009,0.099-0.011,0.134c-0.001,0.004-0.001,0.011-0.003,0.017c-0.003,0.024-0.005,0.044-0.005,0.044
				C172.466,253.274,162.771,258.822,159.109,256.534z"/>
			<g>
				<g>
					<path style="fill:#FA7296;" d="M169.271,254.238c0.196,0.024,0.445-2.607,0.46-5.229c0.046-2.622-0.116-5.252-0.116-5.252
						s-0.068-0.652-0.207-1.625c-0.14-0.976-0.353-2.271-0.685-3.555c-0.346-1.269-0.758-2.578-1.553-3.347
						c-0.398-0.395-0.98-0.432-1.251-0.275c-0.27,0.153-0.384,0.283-0.362,0.31c0.022,0.037,0.184-0.026,0.432-0.09
						c0.259-0.06,0.597,0.023,0.868,0.365c0.552,0.682,0.86,1.965,1.086,3.207c0.22,1.257,0.349,2.54,0.431,3.499
						c0.068,0.965,0.115,1.605,0.115,1.605s0.284,2.578,0.445,5.178C169.12,251.631,169.158,254.229,169.271,254.238z"/>
				</g>
				<g>
					<path style="fill:#FA7296;" d="M165.078,255.977c0.15,0.02,0.594-2.2,0.807-4.463c0.249-2.258,0.197-4.55,0.197-4.55
						s-0.06-0.57-0.147-1.42c-0.129-0.846-0.291-1.981-0.637-3.082c-0.329-1.099-0.785-2.172-1.311-2.871
						c-0.23-0.368-0.496-0.622-0.679-0.793c-0.186-0.173-0.301-0.256-0.329-0.227c-0.027,0.024,0.031,0.16,0.151,0.37
						c0.123,0.215,0.319,0.49,0.476,0.876c0.384,0.719,0.699,1.771,0.918,2.841c0.232,1.064,0.307,2.168,0.373,2.989
						c0.035,0.821,0.057,1.371,0.057,1.371s0.175,2.211,0.136,4.453C165.08,253.711,164.919,255.958,165.078,255.977z"/>
				</g>
				<g>
					<path style="fill:#FA7296;" d="M161.584,256.67c0.15,0.016,0.489-1.353,0.703-2.765c0.227-1.406,0.253-2.857,0.253-2.857
						s-0.026-0.363-0.091-0.9c-0.077-0.538-0.19-1.258-0.44-1.957c-0.228-0.694-0.59-1.371-1-1.767
						c-0.383-0.414-0.759-0.535-0.784-0.486c-0.061,0.08,0.204,0.315,0.435,0.755c0.257,0.419,0.466,1.049,0.577,1.704
						c0.247,1.31,0.175,2.682,0.175,2.682s0.099,1.364,0.078,2.765C161.48,255.239,161.426,256.65,161.584,256.67z"/>
				</g>
			</g>
		</g>
		<g>
			<g>
				<g>
					<path style="fill:#FAD0BF;" d="M158.35,320.995c0,0-1.438,51.318-2.756,89.971c0,0,9.566,13.84,10.505,20.174
						c4.145,3.716,13.581,6.846,10.66,8.392c-1.734,0.915-10.031,0.686-15.557-2.515c-3.792-2.198-4.703-6.162-7.599-10.648
						c0,0-0.113,12.752-1.154,11.736c-1.041-1.02-5.206-12.879-2.803-26.439c0,0-7.699-24.452-10.091-41.348
						c-2.391-16.891,1.771-35.839-1.761-48.435C134.261,309.289,157.126,315.738,158.35,320.995z"/>
					<path style="opacity:0.2;fill:#FA7296;" d="M137.795,321.884c-3.534-12.595,19.331-6.145,20.555-0.889
						c0,0-0.094,3.338-0.254,8.941c-2.79,0.043-5.579,1.339-7.887,3.48c-8.415,7.801-7.125,20.8-6.377,31.445
						c1.005,14.261,2.123,27.995,9.843,40.253c0.615,0.979,1.303,1.776,2.034,2.444c-0.039,1.145-0.077,2.282-0.115,3.406
						c0,0,0.46,0.665,1.186,1.768c-3.297,6.598-0.107,16.966,8.948,16.807c0.166,0.57,0.296,1.11,0.371,1.6
						c4.145,3.716,13.581,6.846,10.66,8.392c-1.734,0.915-10.031,0.686-15.557-2.515c-3.792-2.198-4.703-6.162-7.599-10.648
						c0,0-0.113,12.752-1.154,11.736c-1.041-1.02-5.206-12.879-2.803-26.439c0,0-7.699-24.452-10.091-41.348
						C137.165,353.428,141.327,334.479,137.795,321.884z"/>
					<g>
						<path style="fill:#FA7296;" d="M151.045,351.834c0.084-0.049-0.229-0.798-0.401-1.574c-0.17-0.778-0.206-1.564-0.206-1.564
							s-0.097-0.775-0.078-1.579c0.033-0.796,0.166-1.602,0.079-1.63c-0.075-0.025-0.366,0.748-0.519,1.576
							c-0.138,0.833-0.104,1.693-0.104,1.693s0.113,0.854,0.407,1.646C150.52,351.194,150.98,351.877,151.045,351.834z"/>
					</g>
				</g>
				<g>
					<g>
						<path style="fill:#1B205E;" d="M163.179,432.752c2.84,1.566,3.3,0.09,3.214-1.36c4.278,3.604,13.219,6.631,10.366,8.14
							c-1.734,0.915-10.031,0.686-15.557-2.515c-3.792-2.198-4.703-6.162-7.599-10.648c0,0-0.113,12.752-1.154,11.736
							c-1.041-1.02-5.206-12.879-2.803-26.439C151.095,422.156,158.413,430.127,163.179,432.752z"/>
					</g>
					<g style="opacity:0.4;">
						<path style="fill:#1D255B;" d="M149.011,417.054c0.108-1.749,0.309-3.553,0.636-5.388c1.097,7.94,5.558,14.434,9.729,18.262
							c0.561,1.761,1.524,3.37,2.829,4.645c2.024,1.981,4.731,3.037,7.474,2.92c1.523-0.066,3.087-0.52,4.482-1.297
							c2.463,1.417,4.045,2.571,2.6,3.336c-1.734,0.915-10.031,0.686-15.557-2.515c-3.792-2.198-4.703-6.162-7.599-10.648
							c0,0-0.113,12.752-1.154,11.736c-0.473-0.463-1.585-3.155-2.439-7.221C152.389,426.72,151.995,420.793,149.011,417.054z"/>
					</g>
				</g>
			</g>
			<g>
				<g>
					<path style="fill:#FAD0BF;" d="M99.923,292.012c0,0,0.722,84.16,0.261,122.84c0,0-3.561,7.322-6.132,16.993
						c-3.04,6.506-9.108,14.83-6.26,16.559c1.689,1.025,6.824-3.48,11.297-7.57c3.262-2.98,3.472-4.222,4.201-10.45
						c0,0,1.045,11.836,2.129,10.885c1.089-0.948,2.447-11.642,0.67-25.334c0,0,8.814-23.925,11.98-40.64
						c3.164-16.715-3.191-34.355,3.988-48.251C127.981,315.57,101.388,286.842,99.923,292.012z"/>
					<path style="opacity:0.2;fill:#FA7296;" d="M100.426,423.425c-0.085-1.981-0.687-3.831-1.644-5.415
						c0.836-1.993,1.401-3.158,1.401-3.158c0.003-0.342,0.007-0.709,0.011-1.06c7.179-6.729,9.324-18.554,10.755-28.418
						c1.971-13.555,5.196-27.306,1.848-40.771c-0.557-4.792-1.9-9.456-4.51-13.862c-2.114-3.568-5.123-5.035-8.131-5.035
						c-0.111-19.453-0.233-33.694-0.233-33.694c1.465-5.17,28.059,23.559,22.135,35.031c-7.18,13.896-0.824,31.536-3.988,48.251
						c-3.166,16.715-11.98,40.64-11.98,40.64c1.777,13.692,0.419,24.386-0.67,25.334c-1.084,0.951-2.129-10.885-2.129-10.885
						c-0.729,6.228-0.939,7.471-4.201,10.45c-4.473,4.09-9.607,8.596-11.297,7.57c-2.459-1.492,1.729-7.904,4.875-13.818
						C97.272,433.308,100.652,428.668,100.426,423.425z"/>
					<g>
						<path style="fill:#FA7296;" d="M104.602,349.326c0.034,0.063,0.636-0.224,1.111-0.732c0.485-0.502,0.767-1.19,0.767-1.19
							c0.007,0.003,0.049-0.179,0.088-0.451c0.068-0.268,0.041-0.642,0.025-1.002c-0.111-0.726-0.469-1.326-0.531-1.288
							c-0.091,0.042,0.102,0.683,0.09,1.314c-0.044,0.313-0.054,0.621-0.144,0.837c-0.061,0.221-0.105,0.362-0.116,0.359
							c0,0-0.162,0.587-0.514,1.113C105.039,348.815,104.546,349.236,104.602,349.326z"/>
					</g>
				</g>
				<g>
					<path style="fill:#1B205E;" d="M87.052,446.782c0.068-3.136,4.412-9.484,6.897-14.725c-0.071,1.964,0.02,5.079,2.464,4.465
						c4.27-1.066,9.595-20.065,9.676-20.589c1.777,13.692,0.419,24.386-0.67,25.334c-1.084,0.951-2.129-10.885-2.129-10.885
						c-0.729,6.228-0.939,7.471-4.201,10.45c-4.473,4.09-9.607,8.596-11.297,7.57C87.313,448.114,87.089,447.541,87.052,446.782z"/>
					<path style="opacity:0.4;fill:#1D255B;" d="M87.398,445.038c1.059,0,2.11-0.155,3.157-0.501
						c0.808-0.406,1.618-0.816,2.428-1.223c2.256-1.548,3.886-4.02,4.482-6.812c0.046-0.221,0.073-0.447,0.107-0.67
						c4.017-3.619,8.441-19.423,8.516-19.899c0.252,1.926,0.434,3.787,0.569,5.579c-1.595,2.042-2.523,4.68-2.401,7.501l0.007,0.131
						c0.105,2.46,0.998,4.71,2.392,6.504c-0.304,3.192-0.792,5.23-1.236,5.619c-1.084,0.951-2.129-10.885-2.129-10.885
						c-0.729,6.228-0.939,7.471-4.201,10.45c-4.473,4.09-9.607,8.596-11.297,7.57c-0.479-0.289-0.703-0.862-0.74-1.621
						C87.063,446.28,87.193,445.688,87.398,445.038z"/>
				</g>
			</g>
			<g>
				<path style="fill:#1D255B;" d="M117.681,209.855l25.23,1.308c0,0,1.962,2.242,2.803,7.289
					c4.366,6.522,12.716,17.037,16.729,33.036c5.836,23.253-2.407,70.57-2.407,70.57s-11.967,10.786-29.326,9.058
					c-8.316-0.829-15.857-3.232-21.467-5.513c-0.388-8.953-1.07-24.801-1.143-26.443c0.082,1.908-2.361,15.515-3.964,24.177
					c-3.04-1.469-4.805-2.551-4.805-2.551s-9.061-46.222,0.18-80.034C102.2,230.911,112.478,216.065,117.681,209.855z"/>
				<path style="opacity:0.4;fill:#1D255B;" d="M160.047,321.995c0.097-0.555,0.846-4.972,1.707-11.504
					c-11.001,6.516-23.644,5.978-35.037,0.311c-6.826-3.398-11.387-8.988-15.773-15.267c-2.532-3.626-4.545-8.247-5.333-12.775
					c-2.051-11.747-2.21-12.09-0.922-24.166c0.287-2.691,1.005-5.441,2.035-8.019c1.782-5.79,4.911-11.282,8.292-15.212
					c6.541-7.607,15.771-12.17,25.473-12.589c2.943-0.129,5.872,0.16,8.731,0.777c-1.308-1.914-2.513-3.616-3.506-5.1
					c-0.841-5.047-2.803-7.289-2.803-7.289l-25.23-1.308c-5.203,6.21-15.48,21.056-18.169,30.896
					c-9.24,33.812-0.18,80.034-0.18,80.034s1.765,1.082,4.805,2.551c1.603-8.662,4.046-22.268,3.964-24.177l0.01,0.215
					c0.107,2.485,0.76,17.575,1.133,26.229c5.609,2.28,13.15,4.684,21.467,5.513c17.359,1.729,29.326-9.058,29.326-9.058
					s0.003-0.02,0.008-0.044C160.045,322.009,160.046,322.001,160.047,321.995z"/>
				<g>
					<g>
						<path style="fill:#4C5B8E;" d="M124.321,263.758c0.038,0.02,0.487-0.679,1.138-1.734c0.345-0.514,0.65-1.183,1.145-1.774
							c0.464-0.612,0.958-1.267,1.455-1.919c0.48-0.662,1.105-1.192,1.61-1.757c0.522-0.555,1.007-1.074,1.495-1.425
							c0.934-0.764,1.558-1.269,1.558-1.269c0.006,0.008,0.135-0.155,0.434-0.34c0.292-0.188,0.709-0.463,1.209-0.792
							c0.964-0.733,2.418-1.375,3.842-2.094c1.494-0.521,2.972-1.145,4.141-1.372c1.154-0.291,1.926-0.506,1.92-0.551
							c-0.008-0.046-0.793,0.081-1.973,0.299c-1.194,0.147-2.709,0.708-4.245,1.186c-1.47,0.669-2.974,1.288-3.98,2.003
							c-0.52,0.326-0.954,0.594-1.258,0.782c-0.309,0.182-0.447,0.346-0.452,0.336c0,0-0.626,0.533-1.565,1.34
							c-0.491,0.376-0.974,0.921-1.49,1.503c-0.501,0.593-1.113,1.154-1.583,1.848c-0.478,0.684-0.953,1.363-1.401,2.003
							c-0.473,0.622-0.752,1.318-1.068,1.856C124.661,262.992,124.282,263.737,124.321,263.758z"/>
					</g>
					<g>
						<path style="fill:#4C5B8E;" d="M129.943,263.162c0.096,0.049,1.016-1.726,2.335-3.158c0.716-0.648,1.363-1.377,1.972-1.761
							c0.574-0.427,0.957-0.714,0.957-0.714s0.09-0.08,0.27-0.182c0.176-0.109,0.427-0.268,0.732-0.455
							c0.584-0.426,1.453-0.786,2.316-1.184c1.768-0.697,3.674-0.754,3.679-0.87c0.001-0.046-0.476-0.057-1.202-0.047
							c-0.182,0.003-0.38,0.007-0.588,0.012c-0.204,0.042-0.417,0.086-0.642,0.132c-0.439,0.107-0.929,0.17-1.388,0.328
							c-0.909,0.348-1.834,0.684-2.456,1.09c-0.322,0.184-0.588,0.335-0.777,0.44c-0.191,0.1-0.286,0.179-0.286,0.179
							s-0.388,0.313-0.966,0.781c-0.611,0.429-1.252,1.22-1.946,1.927c-0.573,0.832-1.226,1.596-1.512,2.319
							C130.109,262.683,129.901,263.141,129.943,263.162z"/>
					</g>
				</g>
			</g>
		</g>
		<g>
			<g>
				<path style="fill:#FA7296;" d="M134.874,143.59c0,0,6.953,1.586,8.499,2.895c1.544,1.31,1.686,7.401,3.347,10.14
					c1.66,2.737,9.463,14.996,8.2,25.875c-1.261,10.878-7.804,13.956-8.523,18.324c-0.717,4.369-2.688,10.996-2.688,10.996
					c-1.722,2.881-5.576,4.398-8.678,4.979c-5.629,1.056-15.831-0.979-18.709-6.765c-1.656-3.329-1.361-8.291-2.469-11.924
					c-2.459-8.06-10.97-24.24-10.97-24.24c-3.23,3.587-6.414,7.219-9.538,10.897c-4.793,5.638-10.202,9.256-13.768,15.797
					c5.613,2.77,9.702,5.78,14.517,8.456c2.815,1.564,10.645,4.959,10.964,8.845c0.411,4.996-6.502,17.055-12.417,19.337
					c-5.918,2.283-18.231-16.461-22.711-22.916c-2.484-3.578-8.259-7.4-8.372-12.136c-0.092-3.78,3.787-7.724,5.868-10.564
					c4.826-6.585,10.062-12.856,12.959-20.539c2.655-7.042,9.508-19.814,12.84-22.961c3.33-3.146,10.673-1.235,10.673-1.235
					S121.77,141.436,134.874,143.59z"/>
				<path style="opacity:0.5;fill:#C04A82;" d="M151.206,164.897c-0.062-0.084-0.12-0.172-0.184-0.254
					c2.717,9.165-2.556,11.494-8.813,14.709c-3.93,2.02-9.64,0.998-14.553,0.006c-5.916-1.196-11.114-4.586-14.74-9.39
					c-1.556-2.06-3.579-4.92-3.921-7.521c-0.439-3.348-0.085-6.323-1.09-9.789c-0.364-1.255-1.729-6.461,0.59-7.007
					c-0.696,0.163-1.327,0.319-1.885,0.461c-0.022,0.006-0.046,0.013-0.069,0.018c-0.24,0.063-0.464,0.12-0.675,0.176
					c-0.038,0.009-0.077,0.021-0.113,0.029c-0.447,0.119-0.819,0.221-1.111,0.303c-0.055,0.016-0.099,0.027-0.146,0.042
					c-0.077,0.021-0.154,0.043-0.217,0.061c-0.048,0.014-0.095,0.026-0.134,0.038c-0.042,0.012-0.082,0.023-0.111,0.033
					c-0.028,0.009-0.065,0.018-0.084,0.024c-0.024,0.007-0.053,0.016-0.053,0.016s-1.734-0.446-3.897-0.551
					c-0.004-0.001-0.009-0.001-0.014-0.001c0.417,0.641,0.747,1.343,0.944,2.118c3.386,13.322-9.522,42.408-26.914,34.622
					c-0.082-0.036-0.149-0.076-0.228-0.113c-1.391,1.984-2.843,3.934-4.302,5.885c-0.688,0.923-1.38,1.845-2.062,2.775
					c-2.081,2.84-5.96,6.783-5.868,10.564c0.113,4.735,5.888,8.558,8.372,12.136c4.48,6.455,16.793,25.199,22.711,22.916
					c5.915-2.282,12.828-14.341,12.417-19.337c-0.018-0.218-0.066-0.434-0.131-0.649c-0.016-0.058-0.037-0.114-0.056-0.173
					c-0.062-0.176-0.137-0.351-0.224-0.523c-0.021-0.039-0.037-0.08-0.061-0.12c-0.113-0.21-0.246-0.418-0.396-0.624
					c-0.029-0.041-0.063-0.08-0.094-0.12c-0.13-0.172-0.271-0.342-0.424-0.51c-0.041-0.047-0.083-0.095-0.128-0.142
					c-0.19-0.201-0.389-0.401-0.604-0.596c-0.001-0.002-0.003-0.003-0.005-0.004c-0.213-0.193-0.438-0.383-0.673-0.57
					c-0.058-0.048-0.119-0.095-0.181-0.142c-0.199-0.156-0.403-0.311-0.614-0.463c-0.044-0.031-0.089-0.064-0.133-0.097
					c-0.249-0.176-0.504-0.349-0.763-0.518c-0.071-0.048-0.145-0.093-0.218-0.14c-0.195-0.127-0.395-0.251-0.594-0.373
					c-0.083-0.051-0.166-0.103-0.25-0.152c-0.252-0.152-0.506-0.302-0.759-0.446c-0.075-0.043-0.15-0.083-0.224-0.125
					c-0.193-0.109-0.386-0.217-0.576-0.322c-0.103-0.057-0.206-0.112-0.31-0.168c-0.051-0.027-0.1-0.054-0.151-0.081
					c0.887,1.854,1.482,3.887,0.911,5.963c-0.735,2.654-2.549,5.332-5.411,6.022c-1.493,0.364-2.927,0.398-4.302,0.195
					c-0.671-0.02-1.359-0.084-1.993-0.257c-3.288-0.892-5.734-2.788-7.893-5.361c-1.708-2.04-2.871-5.083-2.45-7.795
					c-0.03-0.614-0.004-1.244,0.086-1.896c0.429-3.013,2.554-5.103,5.162-6.07c-0.654-0.352-1.33-0.7-2.025-1.045
					c3.566-6.541,8.975-10.159,13.768-15.797c3.124-3.679,6.308-7.311,9.538-10.897c0,0,8.511,16.181,10.97,24.24
					c1.264,4.147,1.849,8.152,2.122,11.071c0.109,0.288,0.213,0.583,0.347,0.852c2.842,5.713,12.813,7.763,18.483,6.798
					c0.102-0.019,0.209-0.033,0.311-0.052c0.707-0.136,1.452-0.322,2.201-0.56c0.123-0.04,0.245-0.081,0.364-0.123
					c0.143-0.049,0.285-0.104,0.427-0.156c2.966-1.145,4.582-2.806,5.239-3.625c0.12-0.166,0.255-0.32,0.361-0.496
					c0,0,1.971-6.627,2.688-10.996c0.72-4.368,7.263-7.446,8.523-18.324C155.624,176.429,153.505,169.933,151.206,164.897z"/>
				<g>
					<g>
						<path style="fill:#C04A82;" d="M146.759,200.715c1.379-2.22,3.267-5.157,4.788-8.269c1.533-3.105,2.552-6.424,2.844-8.978
							c0.188-1.271,0.189-2.345,0.225-3.09c-0.023-0.748-0.032-1.176-0.032-1.176s-0.001-0.107-0.005-0.308
							c0.006-0.2-0.016-0.492-0.049-0.865c-0.04-0.746-0.159-1.808-0.386-3.069c-0.459-2.529-1.56-5.808-2.941-8.99
							c-1.366-3.188-2.813-6.376-3.627-8.871c-0.428-1.239-0.707-2.297-0.87-3.044c-0.161-0.747-0.239-1.177-0.204-1.184
							c0.087-0.02,0.499,1.671,1.445,4.094c0.92,2.433,2.452,5.547,3.91,8.718c1.472,3.161,2.674,6.489,3.2,9.096
							c0.259,1.303,0.403,2.401,0.46,3.177c0.04,0.385,0.067,0.689,0.064,0.898c0.008,0.206,0.01,0.317,0.01,0.317
							s0.005,0.444,0.012,1.222c-0.047,0.777-0.071,1.892-0.294,3.207c-0.352,2.649-1.483,6.054-3.124,9.169
							c-1.631,3.122-3.616,6.008-5.1,8.163c-0.745,1.073-1.369,1.969-1.806,2.595c-0.442,0.625-0.708,0.971-0.736,0.952
							c-0.031-0.018,0.179-0.403,0.565-1.063C145.493,202.754,146.068,201.828,146.759,200.715z"/>
						<path style="fill:#C04A82;" d="M96.982,181.365c-0.703,0.605-1.314,1.076-1.756,1.385c-0.452,0.301-0.717,0.459-0.736,0.432
							c-0.046-0.066,0.929-0.812,2.224-2.105c1.292-1.294,2.909-3.126,4.329-5.107c1.442-1.962,2.682-4.063,3.517-5.678
							c0.837-1.615,1.288-2.737,1.288-2.737s0.516-1.095,1.109-2.801c0.571-1.706,1.204-4.059,1.225-6.459
							c0.082-2.398-0.554-4.778-1.46-6.338c-0.879-1.581-1.787-2.431-1.711-2.501c0.023-0.024,0.254,0.175,0.648,0.55
							c0.206,0.178,0.419,0.425,0.654,0.722c0.253,0.284,0.506,0.627,0.746,1.028c1.045,1.552,1.829,4.03,1.839,6.536
							c0.068,2.513-0.515,4.972-1.057,6.75c-0.563,1.778-1.065,2.915-1.065,2.915s-0.493,1.146-1.396,2.775
							c-0.9,1.629-2.229,3.729-3.768,5.668C100.098,178.358,98.374,180.141,96.982,181.365z"/>
						<path style="fill:#C04A82;" d="M70.981,199.468c0.322-0.009,0.713-0.022,1.161-0.033c0.45-0.017,0.96-0.036,1.507,0.059
							c2.215,0.159,5.102,0.891,7.852,1.979c2.719,1.146,5.333,2.509,7.256,3.572c1.924,1.05,3.204,1.751,3.204,1.751
							s1.279,0.699,3.198,1.751c0.945,0.568,2.097,1.128,3.24,1.921c0.573,0.383,1.168,0.777,1.773,1.181
							c0.586,0.433,1.132,0.942,1.701,1.412c1.175,0.863,2.183,2.157,2.607,3.517c0.461,1.38,0.284,2.731,0.102,3.811
							c-0.192,1.093-0.471,1.967-0.652,2.582c-0.191,0.607-0.316,0.953-0.351,0.943c-0.092-0.02,0.302-1.443,0.614-3.585
							c0.12-1.061,0.224-2.35-0.248-3.576c-0.456-1.223-1.336-2.315-2.536-3.15c-0.57-0.438-1.11-0.913-1.689-1.318
							c-0.603-0.376-1.194-0.748-1.767-1.107c-1.128-0.739-2.297-1.273-3.238-1.811c-1.943-1.01-3.237-1.685-3.237-1.685
							s-1.271-0.73-3.18-1.826c-1.891-1.106-4.438-2.515-7.078-3.725c-2.66-1.148-5.453-1.971-7.616-2.247
							c-0.534-0.122-1.031-0.133-1.474-0.15c-0.442-0.024-0.829-0.045-1.148-0.061c-0.636-0.041-1.004-0.079-1.007-0.114
							C69.977,199.523,70.341,199.494,70.981,199.468z"/>
						<path style="fill:#C04A82;" d="M95.86,231.555c0.631-1.132,1.005-2.42,1.286-3.382c0.274-0.977,0.459-1.625,0.459-1.625
							s0.056-0.157,0.153-0.442c0.098-0.27,0.238-0.686,0.45-1.181c0.439-1.001,1.314-2.113,2.219-3.11
							c0.899-1.001,1.744-2.017,2.131-2.919c0.402-0.894,0.43-1.579,0.519-1.575c0.049-0.004,0.163,0.703-0.15,1.715
							c-0.299,1.019-1.118,2.177-1.947,3.235c-0.837,1.058-1.582,2.136-1.916,3.018c-0.159,0.438-0.274,0.833-0.362,1.12
							c-0.083,0.28-0.132,0.441-0.132,0.441s-0.213,0.642-0.535,1.605c-0.337,0.964-0.793,2.278-1.563,3.468
							c-0.714,1.222-1.976,2.135-3.026,2.341c-1.052,0.206-1.736,0.006-1.727-0.03c0.001-0.099,0.694-0.046,1.617-0.351
							C94.26,233.577,95.27,232.724,95.86,231.555z"/>
						<path style="fill:#C04A82;" d="M96.54,147.298c-1.329,0.596-2.535,1.638-3.577,2.808c-2.087,2.355-3.609,5.184-4.69,7.306
							c-1.069,2.134-1.709,3.599-1.709,3.599s-0.669,1.457-1.672,3.641c-0.986,2.193-2.264,5.145-3.625,8.064
							c-1.366,2.918-2.859,5.791-4.234,7.794c-0.685,1.002-1.324,1.79-1.805,2.31c-0.5,0.504-0.793,0.779-0.817,0.755
							c-0.064-0.063,1.058-1.22,2.29-3.277c1.258-2.042,2.639-4.934,3.913-7.874c1.247-2.961,2.491-5.922,3.425-8.143
							c0.939-2.224,1.609-3.691,1.609-3.691c0-0.001,0.67-1.464,1.798-3.605c1.144-2.124,2.755-4.971,4.996-7.362
							c1.114-1.185,2.421-2.25,3.872-2.84c1.442-0.614,2.947-0.674,4.154-0.468c0.3,0.066,0.585,0.13,0.86,0.189
							c0.273,0.063,0.51,0.188,0.743,0.27c0.464,0.175,0.862,0.341,1.158,0.538c0.613,0.354,0.953,0.57,0.935,0.6
							c-0.052,0.128-1.421-0.851-3.755-1.208C99.249,146.566,97.861,146.68,96.54,147.298z"/>
						<path style="fill:#C04A82;" d="M122.366,195.627c1.941-0.236,3.84-0.793,5.248-1.258c1.406-0.471,2.341-0.817,2.341-0.817
							s0.944-0.313,2.364-0.779c1.416-0.465,3.319-1.097,5.269-1.586c0.615-0.156,1.226-0.285,1.831-0.4
							c-0.007-0.504-0.021-0.995-0.045-1.456c0-0.769-0.061-1.47-0.127-2.091c-0.059-0.622-0.107-1.164-0.148-1.609
							c-0.082-0.892-0.131-1.401-0.131-1.401s-0.072-0.507-0.195-1.392c-0.148-0.882-0.241-2.162-0.572-3.663
							c-0.519-3.025-1.539-6.998-2.748-10.919c-1.277-3.899-2.738-7.744-3.946-10.583c-0.567-1.435-1.125-2.593-1.464-3.429
							c-0.352-0.828-0.538-1.31-0.508-1.325c0.031-0.016,0.281,0.436,0.692,1.24c0.4,0.806,1.014,1.941,1.64,3.356
							c1.32,2.797,2.89,6.618,4.264,10.515c1.306,3.92,2.408,7.916,2.985,10.972c0.361,1.513,0.475,2.808,0.638,3.7
							c0.139,0.896,0.217,1.41,0.217,1.41s0.044,0.518,0.114,1.425c0.036,0.454,0.079,1.005,0.126,1.636
							c0.058,0.632,0.105,1.346,0.093,2.127c0.016,0.422,0.024,0.866,0.024,1.324c0.989-0.157,1.924-0.254,2.719-0.263
							c0.751-0.055,1.379,0.008,1.817,0.025c0.438,0.029,0.686,0.059,0.684,0.095c-0.001,0.09-1,0.1-2.473,0.273
							c-0.806,0.073-1.754,0.237-2.751,0.459c-0.03,2.813-0.323,6.162-0.939,9.469c-0.844,4.079-2.28,8.002-3.675,10.784
							c-0.3,0.718-0.681,1.322-1.002,1.867c-0.322,0.541-0.605,1.015-0.837,1.402c-0.471,0.775-0.751,1.207-0.781,1.189
							c-0.028-0.02,0.193-0.488,0.605-1.291c0.208-0.399,0.458-0.886,0.748-1.441c0.292-0.557,0.643-1.17,0.911-1.895
							c1.275-2.809,2.586-6.715,3.33-10.75c0.518-3.186,0.748-6.401,0.74-9.125c-0.546,0.137-1.099,0.285-1.648,0.451
							c-1.893,0.569-3.746,1.261-5.153,1.779c-1.401,0.511-2.337,0.853-2.337,0.853s-0.948,0.322-2.396,0.753
							c-1.448,0.424-3.424,0.926-5.458,1.079c-2.035,0.173-4.126-0.195-5.492-0.906c-0.676-0.361-1.213-0.715-1.521-1.033
							c-0.33-0.301-0.501-0.482-0.479-0.508c0.068-0.082,0.809,0.618,2.161,1.182C118.451,195.64,120.426,195.879,122.366,195.627z"
							/>
					</g>
				</g>
			</g>
			<g>
				<path style="fill:#C04A82;" d="M114.249,155.153c-0.058-0.108-0.117-0.214-0.171-0.323c-0.099-0.198-0.189-0.401-0.277-0.605
					c-0.074-0.169-0.142-0.339-0.206-0.511c-0.096-0.256-0.184-0.513-0.264-0.775c-0.072-0.239-0.141-0.482-0.198-0.727
					c-0.037-0.16-0.069-0.322-0.1-0.484c-0.056-0.292-0.097-0.583-0.13-0.881c-0.014-0.127-0.027-0.251-0.037-0.38
					c-0.026-0.351-0.031-0.707-0.024-1.067c0.003-0.129,0.009-0.259,0.017-0.39c0.021-0.389,0.057-0.78,0.118-1.179
					c0.008-0.035,0.01-0.067,0.014-0.102c0.073-0.425,0.175-0.856,0.295-1.292c0.033-0.113,0.066-0.229,0.1-0.343
					c0.138-0.447,0.29-0.898,0.483-1.355c3.46-8.225,13.834-4.704,13.834-4.704s7.774,0.492,11.299,8.649
					c3.259,7.545,2.483,11.521-0.417,12.21c-0.009,0.003-0.021,0.008-0.032,0.01c-0.226,0.052-0.461,0.09-0.712,0.102
					c-3.497,0.168-7.896-5.599-7.896-5.599s0,0.013,0,0.033c-0.001,0.006-0.001,0.01-0.001,0.016c0,0.023-0.001,0.056-0.003,0.1
					c0,0.002,0,0.005,0,0.01c-0.002,0.046-0.005,0.103-0.007,0.168c-0.001,0.005-0.001,0.008-0.002,0.014
					c-0.039,0.919-0.255,3.537-1.359,5.424c0,0.001-0.002,0.002-0.003,0.003l0,0c-0.98,1.672-2.66,2.762-5.551,1.553
					c-3.158-1.319-6.058-3.485-7.949-6.227c-0.039-0.056-0.078-0.114-0.117-0.173C114.697,155.945,114.463,155.554,114.249,155.153z
					"/>
				<path style="opacity:0.3;fill:#C04A82;" d="M114.249,155.153c-0.058-0.108-0.117-0.214-0.171-0.323
					c-0.099-0.198-0.189-0.401-0.277-0.605c-0.074-0.169-0.142-0.339-0.206-0.511c-0.096-0.256-0.184-0.513-0.264-0.775
					c-0.072-0.239-0.141-0.482-0.198-0.727c-0.037-0.16-0.069-0.322-0.1-0.484c-0.056-0.292-0.097-0.583-0.13-0.881
					c-0.014-0.127-0.027-0.251-0.037-0.38c-0.026-0.351-0.031-0.707-0.024-1.067c0.003-0.129,0.009-0.259,0.017-0.39
					c0.021-0.389,0.057-0.78,0.118-1.179c0.008-0.035,0.01-0.067,0.014-0.102c0.073-0.425,0.175-0.856,0.295-1.292
					c0.033-0.113,0.066-0.229,0.1-0.343c0.138-0.447,0.29-0.898,0.483-1.355c3.46-8.225,13.834-4.704,13.834-4.704
					s7.774,0.492,11.299,8.649c3.259,7.545,2.483,11.521-0.417,12.21c-0.009,0.003-0.021,0.008-0.032,0.01
					c-0.226,0.052-0.461,0.09-0.712,0.102c-3.497,0.168-7.896-5.599-7.896-5.599s0,0.013,0,0.033
					c-0.001,0.006-0.001,0.01-0.001,0.016c0,0.023-0.001,0.056-0.003,0.1c0,0.002,0,0.005,0,0.01
					c-0.002,0.046-0.005,0.103-0.007,0.168c-0.001,0.005-0.001,0.008-0.002,0.014c-0.039,0.919-0.255,3.537-1.359,5.424
					c0,0.001-0.002,0.002-0.003,0.003l0,0c-0.98,1.672-2.66,2.762-5.551,1.553c-3.158-1.319-6.058-3.485-7.949-6.227
					c-0.039-0.056-0.078-0.114-0.117-0.173C114.697,155.945,114.463,155.554,114.249,155.153z"/>
				<g>
					<g>
						<path style="fill:#C04A82;" d="M127.502,137.891c0,0,7.773,0.492,11.299,8.651c3.527,8.157,2.335,12.151-1.157,12.321
							c-3.499,0.167-7.9-5.6-7.9-5.6s-0.024,10.204-6.924,7.32c-6.901-2.884-12.609-9.763-9.15-17.988
							C117.129,134.37,127.502,137.891,127.502,137.891z"/>
						<path style="opacity:0.3;fill:#C04A82;" d="M121.676,153.915c-2.331,0.069-4.021,1.068-5.095,2.499
							c-3.451-3.498-5.207-8.357-2.911-13.818c3.459-8.227,13.832-4.705,13.832-4.705s7.37,0.489,11.009,8.063
							c-0.553,0.323-1.072,0.723-1.531,1.209c-0.088,0.092-0.173,0.185-0.261,0.277c-2.59,2.751-2.457,7.215,0.295,9.806
							c0.597,0.559,1.272,0.985,1.99,1.29c-0.404,0.188-0.854,0.302-1.36,0.328c-3.499,0.167-7.9-5.6-7.9-5.6
							s-0.011,3.445-1.372,5.767C127.691,156.201,125.445,153.802,121.676,153.915z"/>
					</g>
					<g>
						<g>
							<path style="fill:#E66A9F;" d="M118.905,151.001c-0.039,0.041,0.4,0.52,1.175,1.126c0.802,0.557,1.989,1.202,3.313,1.442
								c1.315,0.237,2.687,0.194,3.668-0.066c0.979-0.243,1.606-0.517,1.604-0.518c0,0,0.148-0.081,0.405-0.227
								c0.255-0.15,0.639-0.33,1.024-0.657c0.847-0.556,1.758-1.58,2.454-2.702c0.718-1.131,1.037-2.438,1.193-3.397
								c0.096-0.975,0.062-1.622,0.002-1.622c-0.078-0.004-0.18,0.632-0.387,1.545c-0.27,0.9-0.672,2.093-1.41,3.088
								c-0.723,0.988-1.592,1.869-2.385,2.326c-0.362,0.276-0.718,0.417-0.949,0.542c-0.237,0.119-0.37,0.189-0.37,0.189
								c0,0.001-0.547,0.266-1.414,0.533c-0.87,0.282-2.099,0.391-3.32,0.264c-1.23-0.134-2.382-0.637-3.217-1.071
								C119.485,151.315,118.958,150.94,118.905,151.001z"/>
						</g>
						<g>
							<path style="fill:#E66A9F;" d="M118.071,141.088c-0.069-0.018-0.227,0.45-0.428,1.181c-0.051,0.369-0.131,0.809-0.161,1.282
								c0.008,0.475-0.021,0.991,0.084,1.496c0.12,1.026,0.532,1.998,0.903,2.679c0.376,0.683,0.709,1.081,0.709,1.081
								s0.319,0.409,0.888,0.925c0.572,0.514,1.379,1.136,2.267,1.608c1.754,1.003,3.708,1.449,3.737,1.326
								c0.05-0.144-1.794-0.826-3.362-1.934c-0.798-0.528-1.503-1.164-1.991-1.67c-0.488-0.506-0.751-0.887-0.751-0.887
								s-0.319-0.341-0.696-0.925c-0.372-0.585-0.808-1.42-1.002-2.339c-0.142-0.452-0.157-0.924-0.221-1.367
								c-0.022-0.443-0.003-0.863-0.014-1.227C118.11,141.602,118.137,141.106,118.071,141.088z"/>
						</g>
					</g>
				</g>
			</g>
		</g>
		<g>
			<g>
				<g>
					<path style="fill:#FAD0BF;" d="M151.259,94.629c0,0,6.959-5.769,8.823-0.048c1.865,5.72,0.241,20.617-5.511,17.462
						C148.82,108.887,151.259,94.629,151.259,94.629z"/>
					<path style="opacity:0.2;fill:#FA7296;" d="M151.259,94.629c0,0,1.283-1.062,2.895-1.822c1.157,0.109,2.182,0.781,2.743,2.502
						c1.402,4.301,0.831,13.79-1.984,16.892c-0.111-0.049-0.225-0.095-0.341-0.157C148.82,108.887,151.259,94.629,151.259,94.629z"
						/>
				</g>
				<g>
					<g>
						<path style="fill:#FA7296;" d="M155.753,110.283c0.083-0.037-0.724-1.941-0.918-3.977c-0.262-2.031,0.011-4.042,0.011-4.042
							s0.051-0.503,0.171-1.248c0.141-0.74,0.383-1.723,0.802-2.641c0.432-0.906,0.985-1.762,1.533-2.293
							c0.523-0.546,0.947-0.847,0.913-0.898c-0.014-0.028-0.492,0.198-1.097,0.706c-0.624,0.491-1.273,1.347-1.781,2.272
							c-0.498,0.938-0.804,1.955-0.985,2.729c-0.16,0.772-0.235,1.297-0.235,1.297s-0.203,2.12,0.192,4.186
							C154.686,108.46,155.672,110.335,155.753,110.283z"/>
					</g>
					<g>
						<path style="fill:#FA7296;" d="M158.101,107.512c0.079-0.005,0.116-0.87-0.023-1.734c-0.066-0.43-0.181-0.856-0.269-1.176
							c-0.116-0.313-0.196-0.521-0.196-0.521s-0.078-0.21-0.281-0.485c-0.095-0.138-0.205-0.301-0.323-0.475
							c-0.148-0.152-0.309-0.313-0.464-0.476c-0.678-0.631-1.578-0.825-1.585-0.748c-0.035,0.105,0.735,0.452,1.236,1.087
							c0.122,0.159,0.241,0.316,0.352,0.468c0.088,0.168,0.169,0.321,0.237,0.457c0.154,0.258,0.209,0.458,0.209,0.458
							s0.091,0.182,0.223,0.455c0.112,0.283,0.268,0.669,0.387,1.064C157.857,106.682,157.992,107.521,158.101,107.512z"/>
					</g>
				</g>
			</g>
			<g>
				<g>
					<path style="fill:#FAD0BF;" d="M126.647,60.358c0,0,16.861,2.248,22.001,12.733c5.136,10.482,5.062,27.811,5.062,27.811
						s5.991,8.397,4.067,15.703c-1.241,4.724-9.199,8.43-16.039,10.429c-6.976,2.037-10.734,4.833-10.267,10.539
						c0.427,5.2,2.689,12.691-3.427,15.007c-6.506,2.462-9.74-6.464-10.636-11.337c-1.205-6.56-4.243-19.375-11.418-22.191
						c-6.392-2.508-12.367,3.562-17.817-3.788c-5.532-7.458-3.517-19.383,7.928-15.407C96.102,99.856,89.848,62.737,126.647,60.358z
						"/>
				</g>
				<g>
					<g>
						<g>
							<g style="opacity:0.2;">
								<path style="fill:#FA7296;" d="M141.206,104.988c0,0-0.569,2.514-3.548,2.265c-2.981-0.248-2.703-2.878-2.703-2.878
									s-2.481,2.389-2.32,3.502C132.797,108.992,143.882,111.814,141.206,104.988z"/>
							</g>
							<g>
								<g>
									<path style="fill:#FA7296;" d="M132.614,107.614c0.073,0.025,0.239-0.342,0.578-0.811c0.333-0.471,0.862-1.033,1.48-1.473
										c0.613-0.45,1.305-0.771,1.829-0.948c0.529-0.179,0.89-0.22,0.89-0.22s0.087-0.026,0.242-0.054
										c0.152-0.031,0.374-0.065,0.639-0.075c0.522-0.021,1.241,0.082,1.763,0.535c0.537,0.43,0.827,1.151,0.953,1.707
										c0.132,0.561,0.162,0.962,0.241,0.962c0.055,0.004,0.16-0.393,0.139-1.015c-0.015-0.605-0.211-1.5-0.854-2.163
										c-0.313-0.328-0.713-0.576-1.111-0.719c-0.4-0.141-0.789-0.2-1.12-0.217c-0.334-0.016-0.604,0.004-0.792,0.028
										c-0.189,0.02-0.296,0.042-0.296,0.042s-0.432,0.084-1.021,0.339c-0.586,0.255-1.325,0.687-1.942,1.258
										c-0.625,0.558-1.119,1.25-1.371,1.822C132.601,107.181,132.559,107.599,132.614,107.614z"/>
								</g>
							</g>
						</g>
						<g>
							<g style="opacity:0.2;">
								<path style="fill:#FA7296;" d="M111.513,114.955c0.44,5.358,5.14,9.344,10.501,8.903c5.355-0.439,9.34-5.138,8.901-10.496
									c-0.439-5.358-5.139-9.345-10.493-8.905C115.06,104.898,111.074,109.596,111.513,114.955z"/>
							</g>
							<g style="opacity:0.2;">
								<path style="fill:#FA7296;" d="M153.832,101.087c0.802,1.255,5.341,8.759,3.947,15.512
									c-0.001,0.003-0.001,0.005-0.002,0.006c-0.361,1.381-1.312,2.673-2.627,3.862c-5.111,0.116-9.494-3.761-9.918-8.922
									C144.801,106.29,148.634,101.679,153.832,101.087z"/>
							</g>
							<g>
								<g>
									<g>
										<path style="fill:#FAC198;" d="M113.959,109.727c0.026,0.498,0.764,0.865,1.648,0.821c0.89-0.044,1.587-0.483,1.561-0.98
											c-0.025-0.499-0.762-0.867-1.647-0.823C114.633,108.79,113.935,109.228,113.959,109.727z"/>
									</g>
								</g>
							</g>
							<g>
								<g>
									<g>
										<path style="fill:#FAC198;" d="M150.744,105.396c0.077,0.492,0.847,0.785,1.722,0.651
											c0.883-0.133,1.533-0.639,1.456-1.133c-0.073-0.492-0.845-0.785-1.722-0.654
											C151.318,104.394,150.671,104.901,150.744,105.396z"/>
									</g>
								</g>
							</g>
						</g>
						<g>
							<g>
								<g>
									<g>
										<path style="fill:#1B205E;" d="M120.149,101.206c0.23,2.437,1.671,4.292,3.221,4.15c1.548-0.147,2.618-2.239,2.39-4.678
											c-0.229-2.436-1.672-4.291-3.222-4.146C120.988,96.677,119.92,98.771,120.149,101.206z"/>
									</g>
									<g>
										<g>
											<path style="fill:#1B205E;" d="M123.134,97.734c0.045-0.061,0.236-0.001,0.5,0.059c0.27,0.052,0.616,0.074,0.951,0.022
												c0.334-0.067,0.648-0.184,0.857-0.313c0.208-0.127,0.335-0.226,0.335-0.226s0.031-0.021,0.089-0.062
												c0.058-0.043,0.155-0.086,0.242-0.17c0.199-0.147,0.401-0.399,0.559-0.691c0.16-0.296,0.198-0.643,0.224-0.915
												c0.002-0.271,0.003-0.477,0.066-0.5c0.058-0.023,0.18,0.146,0.304,0.443c0.093,0.298,0.163,0.751,0.042,1.192
												c-0.111,0.434-0.341,0.846-0.576,1.093c-0.102,0.138-0.221,0.218-0.289,0.29c-0.077,0.066-0.119,0.104-0.119,0.104
												s-0.198,0.119-0.511,0.237c-0.311,0.129-0.756,0.204-1.194,0.19c-0.442-0.032-0.859-0.182-1.122-0.356
												C123.227,97.951,123.101,97.781,123.134,97.734z"/>
										</g>
										<g>
											<path style="fill:#1B205E;" d="M124.641,96.63c-0.207,0.32-0.488,0.591-0.75,0.7c-0.257,0.113-0.444,0.111-0.46,0.056
												c-0.029-0.065,0.096-0.181,0.237-0.354c0.151-0.168,0.276-0.425,0.359-0.691c0.08-0.27,0.102-0.552,0.1-0.768
												c-0.003-0.213-0.017-0.355-0.017-0.355s0.058-0.581-0.089-1.166c-0.07-0.284-0.173-0.574-0.286-0.771
												c-0.104-0.206-0.209-0.338-0.167-0.4c0.029-0.048,0.219-0.012,0.439,0.153c0.234,0.156,0.463,0.449,0.64,0.77
												c0.361,0.646,0.415,1.402,0.415,1.402s-0.011,0.188-0.062,0.46C124.946,95.942,124.837,96.304,124.641,96.63z"/>
										</g>
									</g>
								</g>
							</g>
							<g>
								<g>
									<path style="fill:#1B205E;" d="M143.821,99.139c0.228,2.438,1.67,4.292,3.22,4.149c1.55-0.146,2.62-2.238,2.392-4.676
										c-0.23-2.438-1.67-4.293-3.222-4.148C144.662,94.611,143.591,96.702,143.821,99.139z"/>
								</g>
								<g>
									<g>
										<path style="fill:#1B205E;" d="M146.809,95.665c0.041-0.057,0.232-0.001,0.496,0.06c0.268,0.053,0.618,0.074,0.955,0.022
											c0.331-0.067,0.645-0.183,0.855-0.313c0.21-0.126,0.335-0.227,0.335-0.227s0.031-0.022,0.09-0.061
											c0.058-0.044,0.156-0.084,0.24-0.17c0.198-0.146,0.4-0.401,0.56-0.692c0.161-0.294,0.199-0.639,0.225-0.914
											c0.001-0.271,0.001-0.477,0.064-0.5c0.06-0.021,0.184,0.145,0.304,0.441c0.095,0.301,0.165,0.752,0.043,1.194
											c-0.112,0.432-0.343,0.845-0.577,1.091c-0.103,0.139-0.221,0.221-0.29,0.29c-0.076,0.068-0.117,0.105-0.117,0.105
											s-0.198,0.118-0.51,0.24c-0.314,0.125-0.759,0.203-1.196,0.187c-0.442-0.032-0.858-0.18-1.122-0.355
											C146.899,95.884,146.773,95.714,146.809,95.665z"/>
									</g>
									<g>
										<path style="fill:#1B205E;" d="M148.313,94.564c-0.209,0.319-0.49,0.59-0.75,0.698c-0.256,0.113-0.443,0.112-0.463,0.058
											c-0.029-0.067,0.101-0.182,0.239-0.354c0.15-0.169,0.277-0.426,0.364-0.69c0.078-0.272,0.101-0.556,0.096-0.769
											c-0.004-0.213-0.017-0.354-0.017-0.354s0.058-0.581-0.09-1.166c-0.069-0.285-0.17-0.575-0.285-0.77
											c-0.105-0.206-0.208-0.34-0.163-0.402c0.023-0.049,0.216-0.011,0.438,0.154c0.232,0.155,0.46,0.448,0.638,0.769
											c0.362,0.646,0.414,1.403,0.414,1.403s-0.01,0.186-0.058,0.459C148.619,93.874,148.508,94.238,148.313,94.564z"/>
									</g>
								</g>
							</g>
						</g>
						<g>
							<path style="opacity:0.4;fill:#FA7296;" d="M133.175,115.242c0,0,4.749-4.62,8.928-1.038
								c0.656,3.166-1.913,5.642-3.532,5.736C137.488,120.003,133.59,119.096,133.175,115.242z"/>
							<g>
								<g>
									<path style="fill:#FA7296;" d="M143.98,111.963c0.052,0.028-0.126,0.489-0.491,1.151c-0.394,0.634-0.981,1.468-1.765,2.128
										c-0.772,0.659-1.657,1.222-2.403,1.466c-0.355,0.165-0.686,0.214-0.904,0.28c-0.224,0.056-0.349,0.087-0.349,0.087
										s-0.131,0.009-0.36,0.021c-0.229,0.009-0.555,0.06-0.946,0.008c-0.782-0.013-1.808-0.311-2.707-0.793
										c-0.924-0.464-1.635-1.211-2.129-1.764c-0.447-0.603-0.7-1.026-0.648-1.061c0.056-0.042,0.406,0.303,0.919,0.805
										c0.555,0.453,1.282,1.074,2.156,1.416c0.85,0.36,1.759,0.558,2.442,0.516c0.341,0.026,0.619-0.036,0.817-0.052
										c0.198-0.025,0.31-0.038,0.31-0.038s0.108-0.023,0.306-0.06c0.193-0.047,0.482-0.068,0.807-0.193
										c0.672-0.169,1.502-0.62,2.268-1.161c0.776-0.546,1.414-1.272,1.884-1.818C143.627,112.33,143.916,111.929,143.98,111.963z
										"/>
								</g>
							</g>
						</g>
					</g>
					<g>
						<g style="opacity:0.2;">
							<path style="fill:#FA7296;" d="M97.687,107.455c2.112,3.134,1.864,6.994-0.549,8.621c-2.416,1.628-4.469,0.093-6.581-3.039
								c-2.113-3.135-3.483-6.679-1.069-8.308C91.902,103.102,95.573,104.322,97.687,107.455z"/>
						</g>
						<g>
							<path style="fill:#FA7296;" d="M98.317,108.37c-0.419-0.761-0.783-1.21-0.783-1.21s-0.36-0.451-0.991-1.032
								c-0.634-0.574-1.563-1.265-2.622-1.707c-1.045-0.459-2.208-0.645-3.059-0.541c-0.855,0.088-1.361,0.367-1.341,0.413
								c0.023,0.076,0.556-0.072,1.353-0.044c0.794,0.014,1.833,0.284,2.761,0.781c0.938,0.481,1.75,1.171,2.301,1.732
								c0.548,0.563,0.854,0.989,0.854,0.989s0.35,0.395,0.769,1.06c0.06,0.091,0.117,0.198,0.177,0.298l0,0
								c-0.393-0.177-0.981-0.348-1.587-0.276c-0.593,0.064-1.185,0.282-1.561,0.549c-0.207,0.109-0.337,0.255-0.442,0.337
								c-0.105,0.088-0.164,0.139-0.164,0.139s-0.046,0.063-0.123,0.173c-0.075,0.114-0.207,0.258-0.301,0.476
								c-0.238,0.397-0.396,1.021-0.389,1.63c-0.01,0.618,0.271,1.178,0.488,1.542c0.266,0.345,0.477,0.533,0.525,0.495
								c0.055-0.041-0.051-0.304-0.193-0.662c-0.099-0.375-0.238-0.865-0.147-1.351c0.075-0.476,0.247-0.925,0.47-1.207
								c0.201-0.288,0.379-0.444,0.371-0.45c0,0,0.041-0.042,0.111-0.114c0.075-0.068,0.159-0.198,0.309-0.296
								c0.261-0.243,0.691-0.462,1.154-0.596c0.475-0.137,0.974-0.09,1.359-0.036c0.137,0.03,0.248,0.058,0.352,0.081
								c0.283,0.564,0.54,1.223,0.672,1.924c0.091,0.514,0.122,1.04,0.089,1.531c-0.054,0.484-0.135,0.947-0.279,1.317
								c-0.263,0.755-0.583,1.213-0.519,1.26c0.039,0.035,0.469-0.348,0.86-1.115c0.208-0.377,0.355-0.862,0.464-1.396
								c0.092-0.534,0.107-1.118,0.05-1.696C99.179,110.211,98.743,109.12,98.317,108.37z"/>
						</g>
					</g>
				</g>
			</g>
			<g>
				<path style="opacity:0.2;fill:#FA7296;" d="M153.45,94.705c0.016,0.214,0.029,0.422,0.044,0.629
					c-0.028,0.011-0.05,0.023-0.077,0.035C153.417,95.369,153.439,95.126,153.45,94.705z"/>
				<path style="opacity:0.2;fill:#FA7296;" d="M96.102,99.856c0,0-6.254-37.119,30.546-39.498c0,0,16.861,2.248,22.001,12.733
					c2.003,4.087,3.211,9.211,3.942,13.946c-1.527-6.174-5.648-14.113-16.576-17.715c0,0-11.118,26.413-26.907,30.94
					c0,0-1.257,6.567-4.884,6.148c-3.625-0.422-7.142-4.479-7.142-4.479s-6.671-1.929-9.261,1.516
					c-0.671,0.893-1.36,0.695-2.008-0.273C87.084,99.82,90.437,97.888,96.102,99.856z"/>
			</g>
			<g>
				<g>
					<g>
						<path style="fill:#C87568;" d="M144.854,86.196c0.105,0.208,0.743,0.1,1.313,0.141c0.576,0.036,1.01,0.209,1.01,0.209
							s0.448-0.006,0.938,0.176c0.475,0.195,0.92,0.651,1.134,0.55c0.181-0.073,0.095-0.808-0.426-1.432
							c-0.271-0.27-0.592-0.559-0.876-0.664c-0.276-0.137-0.473-0.214-0.472-0.202c0,0-0.843-0.046-1.527,0.253
							C145.254,85.512,144.758,86.018,144.854,86.196z"/>
					</g>
					<g>
						<path style="fill:#C87568;" d="M120.615,89.534c0.164,0.169,0.713-0.062,1.266-0.146c0.271-0.05,0.546-0.076,0.745-0.1
							c0.204-0.013,0.339-0.019,0.339-0.019s0.493-0.217,1.041-0.367c0.542-0.175,1.124-0.253,1.187-0.465
							c0.069-0.211-0.545-0.555-1.217-0.667c-0.669-0.136-1.359-0.064-1.359-0.064s-0.161,0.067-0.402,0.164
							c-0.234,0.12-0.542,0.282-0.816,0.493C120.827,88.782,120.47,89.39,120.615,89.534z"/>
					</g>
				</g>
			</g>
			<g>
				<path style="fill:#F6C95B;" d="M135.037,67.251c0,0-11.12,26.41-26.907,30.939c0,0-1.259,6.566-4.884,6.146
					c-3.625-0.419-7.144-4.479-7.144-4.479s-6.668-1.929-9.261,1.517c-2.59,3.444-5.428-9.251-5.264-20.398
					c0.162-11.146,8.941-17.973,19.85-20.663c10.912-2.691,43.123-6.234,51.587,0.612c8.462,6.847,11.588,27.421-0.575,32.37
					C152.438,93.294,154.229,73.575,135.037,67.251z"/>
				<path style="opacity:0.6;fill:#F6C95B;" d="M81.569,81.815c6.276,5.75,16.658,7.165,24.452,4.034
					c9.042-3.632,20.059-12.031,20.806-22.676c0.142-2.002,0.006-3.977-0.409-5.835c0.012-0.075,0.013-0.15,0.022-0.226
					c2.638-0.124,5.275-0.174,7.823-0.134c6.439,7.923,14.624,15.143,25.191,14.718c2.358,8.403,0.954,18.355-7.017,21.598
					c0,0,1.791-19.72-17.401-26.044c0,0-11.12,26.41-26.907,30.939c0,0-1.259,6.566-4.884,6.146
					c-3.625-0.419-7.144-4.479-7.144-4.479s-6.668-1.929-9.261,1.517C84.316,104.732,81.558,92.747,81.569,81.815z"/>
				<g>
					<g>
						<path style="fill:#C87568;" d="M100.956,99.407c-0.017,0.031,0.345,0.223,1.01,0.54c0.675,0.285,1.722,0.503,2.993,0.474
							c1.261-0.124,2.718-0.459,4.141-1.141c1.419-0.679,2.858-1.55,4.183-2.566c2.662-2.019,4.996-4.415,6.636-6.295
							c0.825-0.936,1.466-1.744,1.93-2.308c0.458-0.564,0.719-0.888,0.719-0.888s0.255-0.326,0.701-0.897
							c0.436-0.579,1.014-1.442,1.724-2.462c0.725-1.011,1.449-2.268,2.283-3.573c0.77-1.348,1.625-2.763,2.392-4.225
							c1.585-2.897,3.026-5.858,4.118-8.076c0.535-1.112,0.982-2.04,1.294-2.691c0.302-0.654,0.462-1.034,0.431-1.052
							c-0.031-0.016-0.251,0.334-0.611,0.958c-0.354,0.629-0.857,1.527-1.463,2.605c-1.196,2.159-2.737,5.07-4.394,7.907
							c-0.802,1.434-1.687,2.816-2.481,4.133c-0.858,1.274-1.6,2.503-2.334,3.488c-0.725,0.988-1.308,1.827-1.749,2.392
							c-0.452,0.556-0.708,0.873-0.708,0.873s-0.255,0.324-0.694,0.889c-0.445,0.563-1.069,1.385-1.861,2.321
							c-1.576,1.882-3.821,4.29-6.369,6.335c-1.268,1.032-2.641,1.917-3.99,2.623c-1.354,0.706-2.729,1.078-3.927,1.257
							C102.479,100.26,100.994,99.268,100.956,99.407z"/>
					</g>
					<g>
						<path style="fill:#C87568;" d="M92.732,97.657c-0.029,0.073,0.487,0.355,1.229,0.807c0.736,0.47,1.684,1.132,2.604,1.857
							c0.925,0.713,1.845,1.452,2.593,1.957c0.364,0.263,0.685,0.463,0.922,0.594c0.229,0.135,0.362,0.213,0.362,0.213
							s0.548,0.294,1.467,0.535c0.234,0.044,0.485,0.118,0.759,0.143c0.28-0.001,0.574-0.002,0.88-0.005
							c0.299-0.051,0.604-0.145,0.912-0.225c0.305-0.089,0.564-0.286,0.845-0.428c0.293-0.135,0.501-0.367,0.732-0.563
							c0.216-0.212,0.472-0.384,0.629-0.62c0.335-0.456,0.697-0.841,0.906-1.239c0.444-0.776,0.709-1.3,0.65-1.334
							c-0.059-0.035-0.438,0.416-0.967,1.104c-0.254,0.355-0.643,0.682-0.997,1.077c-0.169,0.209-0.415,0.338-0.625,0.511
							c-0.222,0.159-0.426,0.357-0.683,0.444c-0.953,0.552-2.045,0.524-2.8,0.236c-0.761-0.251-1.248-0.536-1.248-0.536
							s-0.126-0.065-0.343-0.18c-0.219-0.108-0.532-0.276-0.895-0.509c-0.741-0.437-1.698-1.113-2.688-1.758
							c-0.98-0.657-2.019-1.249-2.831-1.621C93.326,97.761,92.753,97.6,92.732,97.657z"/>
					</g>
					<g>
						<path style="fill:#C87568;" d="M103.207,80.906c0.163,0.063,1.455-2.768,3.31-5.239c1.001-1.182,1.925-2.413,2.764-3.219
							c0.799-0.839,1.331-1.397,1.331-1.397s2.131-2.231,4.404-4.352c2.274-2.115,4.54-4.262,4.445-4.366
							c-0.094-0.102-2.515,1.847-4.922,3.832c-2.4,1.99-4.651,4.181-4.651,4.181s-0.519,0.593-1.3,1.481
							c-0.814,0.854-1.71,2.168-2.653,3.426c-0.789,1.37-1.675,2.679-2.062,3.808C103.419,80.151,103.143,80.88,103.207,80.906z"/>
					</g>
					<g>
						<path style="fill:#C87568;" d="M97.47,70.065c-0.02-0.028-0.234,0.103-0.601,0.355c-0.348,0.271-0.911,0.591-1.446,1.137
							c-1.172,0.987-2.467,2.581-3.583,4.292c-1.087,1.732-1.926,3.604-2.462,5.037c-0.285,0.713-0.443,1.332-0.588,1.754
							c-0.138,0.427-0.215,0.671-0.215,0.671s-0.055,0.248-0.149,0.683c-0.085,0.438-0.26,1.052-0.37,1.807
							c-0.263,1.503-0.495,3.525-0.523,5.554c-0.004,2.026,0.122,4.054,0.414,5.547c0.102,0.75,0.281,1.359,0.387,1.787
							c0.113,0.429,0.193,0.667,0.228,0.658c0.088-0.018-0.092-1.007-0.225-2.498c-0.169-1.487-0.182-3.485-0.09-5.469
							c0.117-1.985,0.419-3.951,0.722-5.403c0.133-0.732,0.323-1.323,0.42-1.744c0.104-0.419,0.165-0.659,0.165-0.659
							s0.067-0.239,0.186-0.654c0.131-0.414,0.265-1.024,0.519-1.721c0.472-1.41,1.217-3.254,2.193-4.982
							c1.008-1.705,2.183-3.323,3.246-4.376C96.73,70.762,97.528,70.141,97.47,70.065z"/>
					</g>
					<g>
						<path style="fill:#C87568;" d="M87.588,74.377c0.145,0.063,0.883-1.372,1.795-2.664c0.495-0.615,0.937-1.269,1.371-1.667
							c0.403-0.419,0.671-0.699,0.671-0.699s0.28-0.268,0.696-0.669c0.392-0.438,1.047-0.857,1.666-1.331
							c1.315-0.849,2.837-1.357,2.796-1.519c-0.019-0.108-1.649,0.158-3.148,0.898c-0.71,0.418-1.459,0.814-1.92,1.242
							c-0.482,0.396-0.805,0.667-0.805,0.667s-0.268,0.322-0.664,0.807c-0.423,0.465-0.832,1.194-1.269,1.89
							C87.984,72.781,87.475,74.331,87.588,74.377z"/>
					</g>
					<g>
						<line style="fill:#C87568;" x1="153.341" y1="68.17" x2="153.341" y2="68.17"/>
					</g>
					<g>
						<path style="fill:#C87568;" d="M156.016,84.382c0.137,0.037,0.852-3.037,0.734-6.187c-0.023-1.569-0.23-3.135-0.443-4.299
							c-0.096-0.584-0.242-1.059-0.313-1.398c-0.082-0.336-0.13-0.528-0.13-0.528s-0.066-0.187-0.185-0.511
							c-0.131-0.322-0.266-0.798-0.521-1.338c-0.477-1.087-1.248-2.491-2.278-3.708c-1.061-1.188-2.354-2.159-3.452-2.614
							c-1.088-0.462-1.871-0.584-1.878-0.542c-0.028,0.092,0.71,0.344,1.698,0.894c1.005,0.542,2.146,1.543,3.079,2.714
							c0.901,1.204,1.563,2.562,1.971,3.613c0.221,0.519,0.33,0.981,0.442,1.291c0.1,0.313,0.158,0.492,0.158,0.492
							s0.052,0.183,0.142,0.502c0.082,0.32,0.24,0.769,0.356,1.327c0.255,1.109,0.53,2.611,0.643,4.14
							C156.336,81.289,155.88,84.356,156.016,84.382z"/>
					</g>
					<g>
						<path style="fill:#C87568;" d="M143.374,68.181c-0.041,0.083,0.71,0.491,1.714,1.248c1.024,0.738,2.191,1.952,3.19,3.28
							c0.986,1.35,1.734,2.849,2.236,3.994c0.248,0.573,0.41,1.073,0.543,1.41c0.136,0.339,0.195,0.54,0.195,0.54
							s0.068,0.196,0.187,0.541c0.109,0.349,0.309,0.831,0.464,1.44c0.365,1.199,0.721,2.84,0.983,4.499
							c0.522,3.329,0.371,6.725,0.512,6.734c0.059,0.006,0.208-0.836,0.284-2.117c0.097-1.279,0.055-2.993-0.088-4.702
							c-0.175-1.706-0.466-3.405-0.794-4.656c-0.136-0.635-0.321-1.143-0.421-1.507c-0.111-0.362-0.175-0.567-0.175-0.567
							s-0.068-0.206-0.221-0.556c-0.153-0.348-0.338-0.856-0.623-1.441c-0.567-1.171-1.415-2.697-2.516-4.048
							c-1.115-1.331-2.412-2.51-3.534-3.169C144.207,68.427,143.39,68.138,143.374,68.181z"/>
					</g>
				</g>
			</g>
		</g>
		<g>
			<path style="fill:#FAD0BF;" d="M101.826,221.174l3.176,2.378c0,0,7.203-8.259,14.024-4.288
				c6.821,3.969,8.681,12.013,3.497,15.081c-5.183,3.069-12.129-4.967-12.129-4.967s-2.008,5.447-4.318,5.06
				c-2.309-0.39-8.206-6.189-8.206-6.189S100.103,222.283,101.826,221.174z"/>
			<g>
				<path style="opacity:0.2;fill:#FA7296;" d="M101.826,221.174l3.176,2.378c0,0,0.076-0.083,0.213-0.227
					c3.956,6.862,14.044,7.646,19.788,2.895c1.092,3.208,0.39,6.431-2.479,8.125c-5.183,3.069-12.129-4.967-12.129-4.967
					s-2.008,5.447-4.318,5.06c-2.309-0.39-8.206-6.189-8.206-6.189S100.103,222.283,101.826,221.174z"/>
				<g>
					<g>
						<path style="fill:#FA7296;" d="M112.558,225.366c-0.047,0.086,1.114,0.858,2.069,1.853c0.455,0.515,0.927,1.009,1.202,1.447
							c0.15,0.208,0.275,0.381,0.363,0.501c0.09,0.119,0.13,0.195,0.13,0.195s0.185,0.287,0.462,0.717
							c0.309,0.413,0.558,1.051,0.879,1.66c0.521,1.271,0.686,2.652,0.791,2.648c0.072,0.007,0.069-1.43-0.37-2.806
							c-0.272-0.654-0.497-1.347-0.791-1.796c-0.268-0.469-0.443-0.779-0.443-0.779s-0.046-0.077-0.148-0.197
							c-0.098-0.12-0.238-0.296-0.411-0.502c-0.314-0.436-0.839-0.924-1.35-1.416C113.861,225.945,112.594,225.296,112.558,225.366z
							"/>
					</g>
					<g>
						<path style="fill:#FA7296;" d="M115.456,222.331c-0.054,0.076,1.451,1.204,2.763,2.538c1.346,1.302,2.401,2.823,2.4,2.821
							c0,0,0.275,0.37,0.646,0.948c0.359,0.585,0.797,1.399,1.047,2.278c0.227,0.878,0.284,1.802,0.14,2.479
							c-0.127,0.673-0.311,1.115-0.255,1.14c0.02,0.011,0.287-0.39,0.5-1.084c0.225-0.695,0.239-1.686,0.052-2.644
							c-0.21-0.953-0.628-1.836-0.975-2.467c-0.362-0.626-0.635-1.022-0.635-1.022s-0.296-0.382-0.758-0.927
							c-0.479-0.534-1.133-1.23-1.854-1.851C117.11,223.268,115.501,222.263,115.456,222.331z"/>
					</g>
					<g>
						<path style="fill:#FA7296;" d="M116.846,219.715c-0.019,0.046,0.459,0.271,1.116,0.71c0.657,0.434,1.502,1.066,2.284,1.765
							c0.791,0.692,1.514,1.452,2.023,2.048c0.511,0.594,0.81,1.017,0.81,1.017c0.001,0,0.332,0.405,0.759,1.051
							c0.416,0.651,0.929,1.568,1.162,2.563c0.263,0.989,0.133,2.046-0.205,2.737c-0.322,0.702-0.704,1.091-0.658,1.13
							c0.017,0.016,0.117-0.069,0.288-0.234c0.17-0.162,0.395-0.423,0.592-0.782c0.432-0.698,0.65-1.856,0.423-2.943
							c-0.192-1.088-0.694-2.078-1.103-2.779c-0.421-0.698-0.752-1.126-0.752-1.126s-0.328-0.434-0.879-1.024
							c-0.552-0.59-1.327-1.338-2.17-2.002c-0.838-0.668-1.738-1.257-2.448-1.634C117.379,219.831,116.858,219.68,116.846,219.715z"
							/>
					</g>
					<g>
						<path style="fill:#FA7296;" d="M107.742,227.311c-0.058,0.065,0.35,0.492,0.784,0.915c0.449,0.386,0.916,0.75,0.916,0.75
							s0.497,0.297,0.995,0.593c0.462,0.333,0.949,0.663,1.016,0.603c0.066-0.059-0.318-0.513-0.74-0.957
							c-0.455-0.384-0.911-0.765-0.911-0.765s-0.506-0.294-1.011-0.59C108.31,227.549,107.803,227.246,107.742,227.311z"/>
					</g>
					<g>
						<path style="fill:#FA7296;" d="M102.577,229.107c0.102,0.03,0.634-1.5,1.4-2.913c0.426-0.679,0.795-1.393,1.181-1.853
							c0.359-0.476,0.597-0.795,0.597-0.795s0.962-1.273,2.165-2.328c1.222-1.036,2.674-1.757,2.632-1.856
							c-0.022-0.063-1.568,0.521-2.912,1.5c-1.321,1.001-2.385,2.292-2.385,2.292s-0.232,0.341-0.579,0.858
							c-0.375,0.494-0.718,1.255-1.101,1.98C102.895,227.496,102.508,229.089,102.577,229.107z"/>
					</g>
				</g>
			</g>
		</g>
		<g>
			<g>
				<g>
					<g>
						<g>
							<path style="fill:#4C5B8E;" d="M111.16,105.655c0.938,6.005,6.453,10.246,12.541,9.527c5.657-0.667,9.829-5.393,9.993-10.92
								c0.306-0.407,1.407-1.737,3.01-1.994c1.037-0.168,2.109,0.163,3.188,0.971c1.195,5.234,5.982,9.035,11.538,8.793
								c6.121-0.264,10.889-5.335,10.839-11.414c0.001-1.882,2.37-3.146,2.036-5.389c-0.333-2.21-2.716-3.879-4.634-4.659
								c-2.876-1.172-6.159-1.335-9.224-1.2c-6.258,0.271-11.113,5.565-10.839,11.825c0.005,0.135,0.015,0.271,0.025,0.405
								c0.016,0.032,0.02,0.063,0.022,0.095c-1.041-0.557-2.093-0.751-3.14-0.587c-1.235,0.199-2.211,0.872-2.882,1.489
								c-0.738-6.232-6.377-10.68-12.6-9.943c-3.678,0.435-7.573,1.972-10.109,4.749c-1.12,1.22-2.147,2.893-2.24,4.595
								c-0.036,0.656,0.16,1.099,0.452,1.445C109.805,104.233,110.982,104.522,111.16,105.655z M140.94,101.137
								c-0.24-5.524,4.041-10.195,9.563-10.434c5.524-0.24,10.197,4.042,10.434,9.563c0.24,5.524-4.04,10.195-9.565,10.433
								C145.847,110.94,141.182,106.657,140.94,101.137z M112.425,105.094c-0.647-5.489,3.275-10.466,8.767-11.117
								c5.489-0.646,10.467,3.276,11.114,8.767c0.651,5.487-3.276,10.466-8.765,11.115
								C118.051,114.506,113.074,110.582,112.425,105.094z"/>
						</g>
					</g>
					<path style="opacity:0.6;fill:#4052A0;" d="M163.979,97.086c-0.588,1.232-1.71,2.236-1.711,3.531
						c0.05,6.079-4.718,11.15-10.839,11.414c-5.556,0.242-10.343-3.559-11.538-8.793c-1.078-0.808-2.15-1.139-3.188-0.971
						c-1.603,0.257-2.704,1.587-3.01,1.994c-0.164,5.527-4.336,10.253-9.993,10.92c-6.088,0.719-11.603-3.522-12.541-9.527
						c-0.142-0.916-0.937-1.285-1.591-1.806l2.808-0.349c-0.021,0.525-0.014,1.056,0.048,1.594
						c0.649,5.488,5.626,9.412,11.116,8.765c5.488-0.649,9.416-5.628,8.765-11.115c-0.067-0.579-0.192-1.137-0.355-1.676
						l1.338-0.166c0.15,0.55,0.275,1.11,0.346,1.695c0.671-0.617,1.647-1.29,2.882-1.489c1.047-0.164,2.099,0.03,3.14,0.587
						c-0.002-0.032-0.006-0.063-0.022-0.095c-0.011-0.134-0.02-0.271-0.025-0.405c-0.017-0.365-0.01-0.722,0.005-1.079l1.352-0.169
						c-0.027,0.391-0.041,0.789-0.024,1.19c0.241,5.52,4.906,9.803,10.431,9.563c5.525-0.237,9.806-4.908,9.565-10.433
						c-0.039-0.957-0.224-1.874-0.513-2.738L163.979,97.086z"/>
				</g>
				<path style="fill:#4052A0;" d="M109.858,101.852c0.065,0.524,0.544,0.896,1.067,0.83c0.526-0.064,0.896-0.542,0.828-1.066
					c-0.063-0.523-0.54-0.896-1.063-0.829C110.17,100.851,109.796,101.327,109.858,101.852z"/>
				<path style="fill:#4052A0;" d="M161.116,95.29c0.063,0.523,0.541,0.895,1.065,0.83c0.523-0.065,0.898-0.544,0.831-1.066
					c-0.065-0.524-0.541-0.896-1.065-0.831C161.42,94.289,161.051,94.766,161.116,95.29z"/>
			</g>
		</g>
	</g>
</g>
</svg>
